HIERARCHY
ROOT Hips
{
	OFFSET 0.00000 0.00000 0.00000
	CHANNELS 6 Xposition Yposition Zposition Zrotation Yrotation Xrotation 
	JOINT LHipJoint
	{
		OFFSET 0 0 0
		CHANNELS 3 Zrotation Yrotation Xrotation
		JOINT LeftHip
		{
			OFFSET 1.44361 -1.63093 0.70831
			CHANNELS 3 Zrotation Yrotation Xrotation
			JOINT LeftKnee
			{
				OFFSET 2.20103 -6.04728 0.00000
				CHANNELS 3 Zrotation Yrotation Xrotation
				JOINT LeftAnkle
				{
					OFFSET 2.54154 -6.98283 0.00000
					CHANNELS 3 Zrotation Yrotation Xrotation
					JOINT LeftToe
					{
						OFFSET 0.05971 -0.16406 1.77582
						CHANNELS 3 Zrotation Yrotation Xrotation
						End Site
						{
							OFFSET 0.00000 -0.00000 0.90832
						}
					}
				}
			}
		}
	}
	JOINT RHipJoint
	{
		OFFSET 0 0 0
		CHANNELS 3 Zrotation Yrotation Xrotation
		JOINT RightHip
		{
			OFFSET -1.65838 -1.63093 0.70830
			CHANNELS 3 Zrotation Yrotation Xrotation
			JOINT RightKnee
			{
				OFFSET -2.26926 -6.23475 0.00000
				CHANNELS 3 Zrotation Yrotation Xrotation
				JOINT RightAnkle
				{
					OFFSET -2.34808 -6.45129 0.00000
					CHANNELS 3 Zrotation Yrotation Xrotation
					JOINT RightToe
					{
						OFFSET -0.18633 -0.51195 1.68539
						CHANNELS 3 Zrotation Yrotation Xrotation
						End Site
						{
							OFFSET -0.00000 -0.00000 0.88927
						}
					}
				}
			}
		}
	}
	JOINT lowerback
	{
		OFFSET 0 0 0
		CHANNELS 3 Zrotation Yrotation Xrotation
		JOINT Chest
		{
			OFFSET -0.10393 2.01691 0.06920
			CHANNELS 3 Zrotation Yrotation Xrotation
			JOINT Chest2
			{
				OFFSET 0.04092 2.01302 -0.05283
				CHANNELS 3 Zrotation Yrotation Xrotation
				JOINT lowerneck
				{
					OFFSET 0 0 0
					CHANNELS 3 Zrotation Yrotation Xrotation
					JOINT Neck
					{
						OFFSET -0.02870 1.58978 -0.03113
						CHANNELS 3 Zrotation Yrotation Xrotation
						JOINT Head
						{
							OFFSET 0.11532 1.54326 -0.29195
							CHANNELS 3 Zrotation Yrotation Xrotation
							End Site
							{
								OFFSET 0.04056 1.59999 -0.09535
							}
						}
					}
				}
				JOINT LeftCollar
				{
					OFFSET 0 0 0
					CHANNELS 3 Zrotation Yrotation Xrotation
					JOINT LeftShoulder
					{
						OFFSET 3.30641 1.15764 0.01104
CHANNELS 3 Zrotation Xrotation Yrotation
						JOINT LeftElbow
						{
OFFSET 0 -4.632080 0.000000
CHANNELS 3 Zrotation Xrotation Yrotation
							JOINT LeftWrist
							{
OFFSET 0 -3.419240 -0.000000
CHANNELS 3 Zrotation Xrotation Yrotation
								JOINT lhand
								{
									OFFSET 0 0 0
CHANNELS 3 Zrotation Xrotation Yrotation
									JOINT LFingers
									{
OFFSET 0 -0.625370 -0.000000
CHANNELS 3 Zrotation Xrotation Yrotation
										End Site
										{
OFFSET 0 -0.504190 -0.000000
										}
									}
								}
								JOINT LThumb
								{
OFFSET 0 0.000000 0.000000
CHANNELS 3 Zrotation Xrotation Yrotation
									End Site
									{
OFFSET 0 -0.511890 0.511890
									}
								}
							}
						}
					}
				}
				JOINT RightCollar
				{
					OFFSET 0 0 0
					CHANNELS 3 Zrotation Yrotation Xrotation
					JOINT RightShoulder
					{
						OFFSET -3.78081 1.02180 -0.16609
CHANNELS 3 Zrotation Xrotation Yrotation
						JOINT RightElbow
						{
OFFSET 0 -4.406400 -0.000000
CHANNELS 3 Zrotation Xrotation Yrotation
							JOINT RightWrist
							{
OFFSET 0 -3.446750 0.000000
CHANNELS 3 Zrotation Xrotation Yrotation
								JOINT rhand
								{
									OFFSET 0 0 0
CHANNELS 3 Zrotation Xrotation Yrotation
									JOINT RFingers
									{
OFFSET 0 -0.513670 -0.000000
CHANNELS 3 Zrotation Xrotation Yrotation
										End Site
										{
OFFSET 0 -0.414140 -0.000000
										}
									}
								}
								JOINT RThumb
								{
OFFSET 0 0.000000 0.000000
CHANNELS 3 Zrotation Xrotation Yrotation
									End Site
									{
OFFSET 0 -0.420460 0.420460
									}
								}
							}
						}
					}
				}
			}
		}
	}
}
MOTION
Frames: 15
Frame Time: .0083333
9.4840 16.6323 17.9044 179.8170 2.5883 -167.8570 0.0000 0.0000 0.0000 -20.2049 -11.2965 -7.3628 0.2062 2.9237 8.0664 0.2841 -5.7501 -9.7022 6.5386 -14.9307 -47.1067 0.0000 0.0000 0.0000 20.9015 3.8160 -6.4558 -0.2277 -3.0714 8.4776 -0.8660 -0.1650 -17.6513 -1.2125 6.9853 -19.6717 -6.7171 2.1401 -11.4345 1.3842 3.7206 -0.2489 5.8444 1.6630 5.6382 -0.6474 7.7909 -6.1118 2.6023 9.6408 18.1732 1.5862 4.5532 6.3555 -0.0000 -0.0000 0.0000 -1.9213 -1.4864 -16.1568 7.4640 -12.6804 0.8305 32.5152 22.5587 18.6709 0.0 0.0 0.0 -7.1250 0.0 0.0 2.7915 8.1636 2.3697 -0.0000 -0.0000 0.0000 4.5025 7.3124 -7.4593 -14.2928 -23.1518 -2.9423 -23.8645 31.5814 37.3717 0.0 0.0 0.0 7.1250 0.0 -0.0 15.2179 69.295 -8.9284
9.4899 16.6315 17.9040 179.8160 2.5641 -167.9070 0.0000 0.0000 0.0000 -20.2113 -11.4323 -7.1909 0.2013 2.8889 7.9697 0.2906 -5.6459 -9.7818 6.5400 -14.9319 -47.1122 0.0000 0.0000 0.0000 20.9417 3.8449 -6.3518 -0.2250 -3.0534 8.4274 -0.8685 -0.2240 -17.6977 -1.3214 7.2802 -20.5483 -6.6802 2.2175 -11.4282 1.3337 3.8194 -0.1797 5.7860 1.7068 5.6995 -0.6416 7.7869 -6.1488 2.6520 9.6331 18.1217 1.6007 4.5576 6.3433 -0.0000 0.0000 0.0000 -1.799 -1.5452 -16.6878 7.5039 -12.7455 0.8393 32.5635 22.2815 18.4674 0.0 0.0 0.0 -7.1250 0.0 0.0 2.8520 8.3854 2.4086 -0.0000 0.0000 0.0000 4.6036 7.2669 -7.488 -14.3196 -23.1897 -2.9528 -23.9959 31.4374 37.0508 0.0 0.0 0.0 7.1250 0.0 -0.0 14.6702 69.0314 -8.5154
9.4970 16.6314 17.9064 179.9600 2.5004 -167.8860 0.0000 0.0000 0.0000 -19.9877 -11.5361 -7.2072 0.2030 2.9011 8.0034 0.2952 -5.5981 -9.8433 6.5391 -14.9311 -47.1086 0.0000 0.0000 0.0000 21.1635 3.9331 -6.3286 -0.2239 -3.0459 8.4065 -0.8660 -0.3123 -17.7045 -1.4741 7.6720 -21.7221 -6.5065 2.2846 -11.4612 1.3202 3.8890 -0.1675 5.6861 1.7440 5.7329 -0.5457 7.8074 -5.8969 2.5665 9.6680 17.8968 1.5441 4.5794 6.2375 -0.0000 0.0000 0.0000 -1.6893 -1.5565 -17.0538 7.5565 -12.8315 0.8509 32.327 22.4971 18.0058 0.0 0.0 0.0 -7.1250 0.0 0.0 2.7664 8.9605 2.3045 -0.0000 0.0000 0.0000 4.7211 7.3032 -7.4862 -14.3626 -23.2507 -2.9697 -24.0636 31.4051 36.9505 0.0 0.0 0.0 7.1250 0.0 -0.0 14.4675 68.9571 -8.3718
9.5047 16.6318 17.9099 180.0290 2.4424 -167.8680 0.0000 0.0000 0.0000 -19.8405 -11.5412 -7.3081 0.2069 2.9288 8.0806 0.2933 -5.6487 -9.8242 6.5379 -14.9301 -47.1042 0.0000 0.0000 0.0000 21.2859 3.9881 -6.3079 -0.2209 -3.0256 8.3500 -0.8585 -0.4056 -17.6628 -1.3605 7.3829 -20.8549 -6.4389 2.3221 -11.4558 1.3208 3.9300 -0.1832 5.6534 1.7678 5.7117 -0.5559 7.8535 -5.6616 2.5661 9.7330 17.7304 1.5343 4.6131 6.1427 -0.0000 0.0000 0.0000 -1.7195 -1.5698 -16.8395 7.5817 -12.8726 0.8565 32.1238 23.0382 17.8156 0.0 0.0 0.0 -7.1250 0.0 0.0 2.6623 9.2181 2.2039 -0.0000 0.0000 0.0000 4.74 7.3646 -7.3961 -14.3692 -23.26 -2.9724 -22.9557 30.722 37.3967 0.0 0.0 0.0 7.1250 0.0 -0.0 16.4140 69.0315 -9.5464
9.5125 16.6309 17.9123 179.9740 2.4111 -167.8340 0.0000 0.0000 0.0000 -19.8462 -11.5380 -7.4390 0.2109 2.9567 8.1581 0.2889 -5.7442 -9.7741 6.5273 -14.9205 -47.0629 0.0000 0.0000 0.0000 21.2544 4.0762 -6.2912 -0.2182 -3.0070 8.2981 -0.8536 -0.5158 -17.6540 -1.3036 7.2330 -20.4077 -6.5398 2.3617 -11.4403 1.3094 3.9959 -0.2070 5.7055 1.8010 5.6625 -0.6395 7.8990 -5.6554 2.6580 9.7898 17.7451 1.5792 4.6424 6.1358 -0.0000 0.0000 0.0000 -1.815 -1.6471 -16.4203 7.5590 -12.8355 0.8515 32.1362 23.5396 17.8799 0.0 0.0 0.0 -7.1250 0.0 0.0 2.6613 9.1423 2.2071 -0.0000 0.0000 0.0000 4.6959 7.4226 -7.3558 -14.4073 -23.314 -2.9874 -21.4116 30.0481 38.2003 0.0 0.0 0.0 7.1250 0.0 -0.0 19.3777 69.2891 -11.4249
9.5182 16.6294 17.9127 179.8780 2.3772 -167.7710 0.0000 0.0000 0.0000 -19.9169 -11.5792 -7.5784 0.2167 2.9966 8.2694 0.2861 -5.8032 -9.7430 6.5191 -14.9131 -47.0310 0.0000 0.0000 0.0000 21.1607 4.1030 -6.3557 -0.2189 -3.0118 8.3117 -0.8561 -0.5531 -17.6933 -1.3704 7.4086 -20.9317 -6.6602 2.3962 -11.4867 1.2793 4.0634 -0.2171 5.7537 1.8319 5.6625 -0.5951 7.9633 -5.6545 2.5956 9.8856 17.7419 1.5593 4.6881 6.1389 -0.0000 0.0000 0.0000 -1.8518 -1.7302 -16.4742 7.5668 -12.8482 0.8532 32.0986 23.5726 17.8533 0.0 0.0 0.0 -7.1250 0.0 0.0 2.6408 9.1802 2.1881 -0.0000 0.0000 0.0000 4.6429 7.4266 -7.4915 -14.4902 -23.4311 -3.0203 -22.0494 31.2709 38.4071 0.0 0.0 0.0 7.1250 0.0 -0.0 18.8550 69.6823 -11.2737
9.5209 16.6297 17.9121 179.8400 2.2801 -167.7150 0.0000 0.0000 0.0000 -19.9508 -11.6959 -7.6470 0.2209 3.0256 8.3501 0.2850 -5.8176 -9.7292 6.5232 -14.9169 -47.0471 0.0000 0.0000 0.0000 21.1256 3.9881 -6.4384 -0.2178 -3.0046 8.2916 -0.8594 -0.5118 -17.7122 -1.3663 7.3981 -20.9003 -6.6414 2.4188 -11.5405 1.2318 4.0981 -0.2218 5.7009 1.8492 5.6875 -0.3744 8.0366 -5.6452 2.4056 9.9936 17.7376 1.4737 4.7412 6.1571 0.0000 -0.0000 0.0000 -1.8132 -1.822 -16.749 7.5871 -12.8814 0.8577 32.0572 23.2086 17.9513 0.0 0.0 0.0 -7.1250 0.0 0.0 2.6005 9.0769 2.1599 0.0000 -0.0000 0.0000 4.634 7.3618 -7.778 -14.5117 -23.4615 -3.0289 -22.5009 32.2865 37.8215 0.0 0.0 0.0 7.1250 0.0 -0.0 17.5183 69.2852 -10.3018
9.5237 16.6305 17.9112 179.8620 2.1400 -167.7140 0.0000 0.0000 0.0000 -19.9206 -11.7261 -7.6233 0.2199 3.0188 8.3312 0.2800 -5.8647 -9.6627 6.5255 -14.9189 -47.0559 0.0000 0.0000 0.0000 21.1829 3.8544 -6.4192 -0.2134 -2.9744 8.2074 -0.8593 -0.5248 -17.7156 -1.3959 7.4745 -21.1288 -6.5464 2.4454 -11.5244 1.2003 4.1217 -0.2316 5.6156 1.8649 5.6735 -0.1704 8.0970 -5.7188 2.2733 10.0705 17.8584 1.4137 4.7785 6.2258 -0.0000 -0.0000 0.0000 -1.7863 -1.9214 -16.7333 7.5640 -12.8436 0.8526 32.0702 23.0734 18.1298 0.0 0.0 0.0 -7.1250 0.0 0.0 2.5839 8.8713 2.1568 -0.0000 -0.0000 0.0000 4.6816 7.3761 -7.9181 -14.4906 -23.4316 -3.0204 -21.8801 31.7414 37.4453 0.0 0.0 0.0 7.1250 0.0 -0.0 17.8284 68.7399 -10.271
9.5292 16.6298 17.9104 179.9010 2.0326 -167.7340 0.0000 0.0000 0.0000 -19.8463 -11.6167 -7.6308 0.2195 3.0159 8.3231 0.2718 -5.9746 -9.5599 6.5248 -14.9183 -47.0533 0.0000 0.0000 0.0000 21.2748 3.8020 -6.3656 -0.2106 -2.9545 8.1521 -0.8590 -0.5974 -17.7402 -1.4199 7.5357 -21.3124 -6.4804 2.4850 -11.5348 1.1924 4.1673 -0.2465 5.5765 1.8906 5.6621 -0.0494 8.1010 -5.6540 2.1825 10.0698 17.9118 1.3655 4.7757 6.2435 0.0000 0.0000 0.0000 -1.7617 -1.9205 -16.767 7.5525 -12.825 0.85 31.9844 23.1669 18.0447 0.0 0.0 0.0 -7.1250 0.0 0.0 2.5406 8.9852 2.1148 0.0000 0.0000 0.0000 4.7216 7.5153 -7.7733 -14.5207 -23.4742 -3.0324 -21.8768 31.128 37.6235 0.0 0.0 0.0 7.1250 0.0 -0.0 18.0538 68.9044 -10.4704
9.5357 16.6290 17.9116 179.9270 1.9367 -167.7480 0.0000 0.0000 0.0000 -19.7757 -11.5670 -7.6563 0.2195 3.0163 8.3240 0.2636 -6.0607 -9.4524 6.5252 -14.9187 -47.0550 0.0000 0.0000 0.0000 21.3492 3.8057 -6.3124 -0.2073 -2.9315 8.0882 -0.8577 -0.6944 -17.7643 -1.4157 7.5251 -21.2806 -6.4377 2.5300 -11.5597 1.1750 4.2248 -0.2617 5.5433 1.9214 5.6562 0.1102 8.0574 -5.4804 2.0584 10.0049 17.8843 1.2895 4.7428 6.2213 -0.0000 -0.0000 0.0000 -1.6666 -1.9353 -17.1557 7.5517 -12.8235 0.8498 31.8881 23.0817 17.7872 0.0 0.0 0.0 -7.1250 0.0 0.0 2.5142 9.2971 2.077 -0.0000 -0.0000 0.0000 4.7378 7.6057 -7.6786 -14.5638 -23.535 -3.0496 -21.7316 30.7862 37.5453 0.0 0.0 0.0 7.1250 0.0 -0.0 18.1373 68.7864 -10.4721
9.5417 16.6299 17.9147 179.8620 1.8091 -167.8000 0.0000 0.0000 0.0000 -19.8308 -11.6440 -7.6081 0.2191 3.0132 8.3154 0.2584 -6.0853 -9.3783 6.5280 -14.9212 -47.0657 0.0000 0.0000 0.0000 21.3154 3.7704 -6.2336 -0.2048 -2.9140 8.0395 -0.8578 -0.7946 -17.8054 -1.2825 7.1764 -20.2391 -6.4949 2.5515 -11.4729 1.1401 4.2561 -0.2591 5.5366 1.9375 5.6046 0.2204 8.0686 -5.4722 2.0462 10.0044 17.9465 1.2702 4.7465 6.2464 0.0000 0.0000 0.0000 -1.5814 -2.0659 -17.5581 7.5504 -12.8215 0.8496 31.8413 22.8753 17.6258 0.0 0.0 0.0 -7.1250 0.0 0.0 2.5060 9.4899 2.0606 0.0000 0.0000 0.0000 4.7163 7.5864 -7.7349 -14.5488 -23.5138 -3.0436 -21.2571 30.6909 37.3632 0.0 0.0 0.0 7.1250 0.0 -0.0 18.4999 68.4701 -10.5556
9.5482 16.6315 17.9169 179.8050 1.7015 -167.8460 0.0000 0.0000 0.0000 -19.8660 -11.7101 -7.5696 0.2199 3.0189 8.3315 0.2564 -6.0986 -9.3510 6.5271 -14.9203 -47.0620 0.0000 0.0000 0.0000 21.2952 3.7915 -6.1559 -0.2053 -2.9171 8.0479 -0.8616 -0.9093 -17.8900 -1.2473 7.0810 -19.9556 -6.5643 2.5771 -11.3741 1.1170 4.2925 -0.2447 5.5496 1.9550 5.5563 0.3441 8.1550 -5.5922 2.0654 10.1071 18.0227 1.2720 4.8064 6.2963 0.0000 -0.0000 0.0000 -1.5396 -2.225 -17.8188 7.5532 -12.8261 0.8502 31.8032 22.6859 17.6051 0.0 0.0 0.0 -7.1250 0.0 0.0 2.4842 9.5209 2.041 0.0000 -0.0000 0.0000 4.6982 7.5647 -7.8291 -14.5460 -23.5099 -3.0425 -20.9904 30.8432 37.4262 0.0 0.0 0.0 7.1250 0.0 -0.0 18.9058 68.4456 -10.783
9.5543 16.6317 17.9168 179.7660 1.6493 -167.8720 0.0000 0.0000 0.0000 -19.8784 -11.7450 -7.5210 0.2189 3.0121 8.3123 0.2553 -6.0813 -9.3294 6.5237 -14.9173 -47.0489 0.0000 0.0000 0.0000 21.2817 3.8438 -6.0767 -0.2030 -2.9011 8.0035 -0.8627 -1.0055 -17.9399 -1.4345 7.5728 -21.4237 -6.5993 2.6129 -11.3610 1.0995 4.3437 -0.1965 5.5591 1.9754 5.5919 0.6679 8.6016 -5.4416 1.8222 10.7577 17.5762 1.1732 5.1454 6.1571 0.0000 -0.0000 0.0000 -1.4765 -2.35 -18.2468 7.5954 -12.8949 0.8596 31.7662 22.1457 17.7937 0.0 0.0 0.0 -7.1250 0.0 0.0 2.4346 9.3139 2.0104 0.0000 -0.0000 0.0000 4.6909 7.4824 -7.9825 -14.5498 -23.5152 -3.044 -21.2099 31.2789 37.5167 0.0 0.0 0.0 7.1250 0.0 -0.0 18.7483 68.5973 -10.7545
9.5579 16.6317 17.9155 179.7170 1.5357 -167.8820 0.0000 0.0000 0.0000 -19.9251 -11.8552 -7.4648 0.2182 3.0069 8.2981 0.2525 -6.0662 -9.2827 6.5113 -14.9061 -47.0008 0.0000 0.0000 0.0000 21.2388 3.7323 -6.0781 -0.2011 -2.8875 7.9656 -0.8651 -1.0114 -17.9671 -1.5478 7.8528 -22.2679 -6.6128 2.6086 -11.3898 1.1031 4.3407 -0.1317 5.5751 1.9667 5.6761 0.5969 8.7576 -5.4165 1.7636 11.0039 17.4131 1.1769 5.2640 6.0992 0.0000 0.0000 0.0000 -1.4703 -2.405 -18.6584 7.6991 -13.0639 0.8829 31.8058 21.5372 18.0393 0.0 0.0 0.0 -7.1250 0.0 0.0 2.4265 9.027 2.0176 0.0000 0.0000 0.0000 4.5873 7.3556 -7.9554 -14.4482 -23.3718 -3.0036 -21.66 31.1959 37.2765 0.0 0.0 0.0 7.1250 0.0 -0.0 17.8956 68.5145 -10.2201
9.5600 16.6322 17.9149 179.6950 1.3159 -167.8820 0.0000 0.0000 0.0000 -19.9463 -11.9961 -7.4550 0.2201 3.0201 8.3347 0.2458 -6.1139 -9.1881 6.4929 -14.8896 -46.9293 0.0000 0.0000 0.0000 21.2365 3.5199 -6.1237 -0.2020 -2.8937 7.9828 -0.8729 -0.9951 -18.0385 -1.4339 7.5713 -21.4193 -6.5526 2.6270 -11.3875 1.0862 4.3588 -0.1639 5.5241 1.9806 5.6436 0.6952 8.9224 -5.0921 1.6961 11.2294 17.2434 1.1349 5.3780 5.9991 -0.0000 0.0000 0.0000 -1.4257 -2.2853 -19.1539 7.8159 -13.254 0.9095 31.8478 21.1882 17.9442 0.0 0.0 0.0 -7.1250 0.0 0.0 2.4666 9.1267 2.046 -0.0000 0.0000 0.0000 4.575 7.4917 -7.7781 -14.2661 -23.1139 -2.9318 -22.7256 29.9573 35.5172 0.0 0.0 0.0 7.1250 0.0 -0.0 14.6114 67.1751 -7.8679
